# xmcd CD database file
#
# Track frame offsets:
#	151
#	15763
#	31742
#	47110
#	63215
#	79127
#	95915
#	111832
#	128557
#	144546
#	161919
#	179706
#	196271
#	211318
#
# Disc length: 3037 seconds
#
# Revision: 2
# Processed by: cddbd v1.5.2PL0 Copyright (c) Steve Scherf et al.
# Submitted via: CDex 1.51
#
DISCID=bd0bdb0e
DTITLE=Relax Music Voyage - Pure Relaxation
DYEAR=2011
DGENRE=New Age
TTITLE0=Relax dream
TTITLE1=Alba
TTITLE2=Fantastici orizzonti
TTITLE3=La quiete del corpo
TTITLE4=Volo
TTITLE5=La vita
TTITLE6=Anima
TTITLE7=Il sogno
TTITLE8=Musica nell'anima
TTITLE9=Cammino
TTITLE10=Sentieri celesti
TTITLE11=Colori di vita
TTITLE12=Sensi
TTITLE13=Sentimental relax
EXTD=YEAR: 2011
EXTT0=
EXTT1=
EXTT2=
EXTT3=
EXTT4=
EXTT5=
EXTT6=
EXTT7=
EXTT8=
EXTT9=
EXTT10=
EXTT11=
EXTT12=
EXTT13=
PLAYORDER=
